<?xml version="1.0" encoding="UTF-8"?>
<svg id="_레이어_1" data-name="레이어_1" xmlns="http://www.w3.org/2000/svg" viewBox="0 0 163.01 249.47">
  <defs>
    <style>
      .cls-1 {
        stroke: #fff;
        stroke-miterlimit: 10;
        stroke-width: .4px;
      }

      .cls-1, .cls-2 {
        fill: none;
      }

      .cls-3 {
        fill: #fff;
      }
    </style>
  </defs>
  <g>
    <path class="cls-3" d="M14.35,9.61H.73v-3.01h5.06v-2.53h3.88v2.53h4.68v3.01ZM13.62,15.21c-.03,2.88-2.53,4.9-5.95,4.9s-5.84-2.02-5.84-4.9,2.5-4.9,5.84-4.9,5.92,2.07,5.95,4.9ZM22.07,28.4H4.98v-7.05h3.93v3.96h13.16v3.1ZM5.44,15.21c0,1.32.94,1.96,2.23,1.96s2.29-.65,2.29-1.96c0-1.24-.97-1.88-2.29-1.88s-2.23.65-2.23,1.88ZM21.56,22.93h-3.85v-4.44h-3.04v-3.07h3.04v-2.21h-3.04v-3.1h3.04v-6h3.85v18.81Z"/>
    <path class="cls-3" d="M53.17,19.35h-9.04v3.98h-3.82v-3.98h-9.72v-3.1h22.58v3.1ZM51.1,8.13h-6.46c.5,1.74,2.69,3.61,7.62,4.15l-1.43,3.01c-4.79-.48-7.71-2.35-8.99-4.82-1.28,2.44-4.19,4.33-8.94,4.82l-1.4-3.01c4.9-.54,7.07-2.41,7.56-4.15h-6.41v-3.01h18.44v3.01ZM50.7,28.4h-17.55v-7.16h3.88v4.06h13.67v3.1Z"/>
    <path class="cls-3" d="M121.42,10.74h-11.57v-3.07h3.9v-2.99h3.85v2.99h3.82v3.07ZM126.37,27.75h-3.58v-6.94h-2.56c-.9,1.79-2.6,2.91-4.68,2.91-3.04,0-5.3-2.48-5.28-6-.03-3.55,2.23-6.03,5.28-6.03,2.17,0,3.9,1.18,4.76,3.1v-2.83h2.48v-7.48h3.58v23.28ZM113.64,17.71c0,1.8.75,2.75,1.91,2.75s2.02-.94,2.02-2.75-.81-2.75-2.02-2.75-1.91.92-1.91,2.75ZM120.91,17.71v.05h1.88v-2.69h-2.34c.3.78.46,1.67.46,2.64ZM131.35,28.8h-3.71V4.09h3.71v24.71Z"/>
    <path class="cls-3" d="M153.84,11.92c0,3.71-3.01,6.33-6.84,6.33s-6.86-2.61-6.84-6.33c-.03-3.63,3.01-6.27,6.84-6.27s6.84,2.64,6.84,6.27ZM161.21,28.4h-17.36v-8.4h3.93v5.3h13.43v3.1ZM143.93,11.92c0,1.94,1.32,2.96,3.07,2.96s2.99-1.02,2.99-2.96-1.32-2.93-2.99-2.91c-1.75-.03-3.07,1.05-3.07,2.91ZM160.59,21.78h-3.88V4.12h3.88v17.66Z"/>
  </g>
  <line class="cls-1" x1="81.5" y1="191.96" x2="81.5" y2="53.87"/>
  <g>
    <rect class="cls-2" x="62.38" y="9.57" width="38.25" height="23.84"/>
    <path class="cls-3" d="M81.47,22.49c-1.5-2.94-5.81-2.55-5.81-7.04,0-2.05,1.29-3.17,3.1-3.17,1.39,0,2.31.55,2.71,2.09h.06c.39-1.54,1.32-2.09,2.71-2.09,1.81,0,3.1,1.12,3.1,3.17,0,4.49-4.31,4.09-5.81,7.04h-.06Z"/>
  </g>
  <path class="cls-3" d="M82.02,224.51c-.2.28-.74.24-1.21-.1,0,0-3.75-2.7-3.9-3.08-.11-.3.17-.51.62-.28,1.38.7,3.98,2.35,3.98,2.35.47.33.69.83.49,1.11Z"/>
  <path class="cls-3" d="M81.26,224.51c.2.28.74.24,1.21-.1,0,0,3.75-2.7,3.9-3.08.11-.3-.17-.51-.62-.28-1.38.7-3.98,2.35-3.98,2.35-.47.33-.69.83-.49,1.11Z"/>
  <path class="cls-3" d="M81.22,241.61c.28.4,1.48.03,2.68-.82,0,0,9.64-6.88,10.15-7.63.41-.61-.09-.82-1.21-.16-3.38,2-9.95,6.36-9.95,6.36-1.2.85-1.95,1.86-1.67,2.25Z"/>
  <path class="cls-3" d="M81.79,241.61c-.28.4-1.48.03-2.68-.82,0,0-9.64-6.88-10.15-7.63-.41-.61.09-.82,1.21-.16,3.38,2,9.95,6.36,9.95,6.36,1.2.85,1.95,1.86,1.67,2.25Z"/>
  <path class="cls-3" d="M81.47,249.47c.48,0,.88-1.94.88-4.33,0,0-.06-19.23-.39-20.61-.26-1.11-.73-.65-.83,1.46-.32,6.36-.54,19.15-.54,19.15,0,2.39.39,4.33.88,4.33Z"/>
</svg>